<svg width="329" height="460" viewBox="0 0 329 460" fill="none" xmlns="http://www.w3.org/2000/svg">
<path fill-rule="evenodd" clip-rule="evenodd" d="M165.789 87.3727C172.667 91.5192 179.425 93.5227 182.597 92.7048C190.552 90.6539 191.282 61.5476 185.128 50.073C178.974 38.5984 147.333 33.5969 145.739 56.3319C145.186 64.2224 148.498 71.2642 153.391 77.0102L144.617 117.921H170.107L165.789 87.3727Z" fill="#B28B67"/>
<path fill-rule="evenodd" clip-rule="evenodd" d="M170.599 36.8481C167.24 36.297 158.194 35.9181 156.526 35.9183C155.46 35.9183 154.304 36.162 153.673 35.1829C153.156 34.3811 153.345 33.0251 153.191 32.0946C153.012 31.0138 152.758 29.9469 152.5 28.8827C151.768 25.8544 150.659 22.9733 149.11 20.2684C146.202 15.1936 141.941 11.2186 136.562 8.90549C130.623 6.35147 123.901 5.76665 117.513 6.2847C110.676 6.83894 104.486 9.09651 98.0308 11.2211C91.8795 13.2456 85.4364 14.0424 79.0026 13.0537C72.5202 12.0577 67.6222 8.54349 62.1545 5.208C56.5571 1.79327 50.1603 -0.440096 43.5431 0.0733009C37.3663 0.552699 31.6733 3.10379 26.5656 6.51167C21.7867 9.70014 17.8437 13.5363 15.6175 18.9355C13.2225 24.7433 13.2248 31.1182 17.163 36.251C22.8714 43.691 33.4687 45.615 42.2852 45.4236C47.3849 45.3133 52.3933 44.3822 57.208 42.6884C63.6289 40.4294 69.1776 36.6006 75.1845 33.494C78.0036 32.0362 80.9175 30.839 83.9718 29.9765C86.9356 29.1393 89.8549 28.7552 92.5385 30.5461C95.3773 32.4408 97.921 34.3019 101.169 35.4879C104.284 36.6258 107.584 37.2622 110.903 37.2365C117.362 37.1866 123.728 35.1739 130.001 33.8256C135.116 32.7264 140.589 31.6309 145.803 32.6876C147.979 33.1286 151.158 34.0389 151.943 36.3009C138.716 38.6989 133.52 55.062 137.25 67.0741C139.263 73.5575 151.361 81.1366 156.065 77.7281C159.045 75.5688 157.235 72.734 156.065 70.8627C153.822 67.2789 153.055 62.6754 157.204 60.1803C160.783 58.0285 164.546 63.1386 164.617 63.1331C165.601 63.0555 174.101 58.2474 179.956 51.2311C185.734 51.5737 186.61 47.7635 185.231 44.6475C183.851 41.5315 175.241 37.61 170.599 36.8481Z" fill="#191847"/>
<path fill-rule="evenodd" clip-rule="evenodd" d="M138.244 206.097L217.164 338.07L276.331 449.642H289.075L189.94 206.097H138.244Z" fill="#997659"/>
<path fill-rule="evenodd" clip-rule="evenodd" d="M271.322 443.232C270.273 442.767 269.024 443.232 268.629 444.311C267.851 446.441 266.756 449.762 266.756 451.613C266.756 454.487 267.714 460 267.714 460C271.047 460 327.617 460 327.617 460C327.617 460 329.953 452.279 324.922 451.663C319.891 451.047 316.564 450.551 316.564 450.551L288.645 438.101C288.14 437.876 287.549 438.113 287.338 438.624L285.517 443.043C285.517 443.043 280.86 445.216 277.948 445.216C276.124 445.216 273.231 444.082 271.322 443.232Z" fill="#E4E4E4"/>
<path fill-rule="evenodd" clip-rule="evenodd" d="M259.899 431.776L284.476 424.34C284.476 424.34 268.324 376.043 244.884 318.042C221.443 260.041 194.535 206.097 194.535 206.097H125.121C125.121 206.097 155.037 274.333 188.55 330.101C222.065 385.867 259.899 431.776 259.899 431.776Z" fill="#5E109B"/>
<path fill-rule="evenodd" clip-rule="evenodd" d="M133.057 206.097C125.609 252.473 111.243 311.724 109.886 313.553C108.983 314.772 76.4438 325.678 12.2694 346.271L15.0223 357.512C91.5501 346.467 131.874 337.899 135.993 331.806C142.172 322.667 173.025 250.464 184.976 206.097H133.057Z" fill="#B28B67"/>
<path fill-rule="evenodd" clip-rule="evenodd" d="M34.8278 336.554L39.6767 354.658C96.915 359.68 131.987 356.052 144.89 343.774C157.794 331.496 172.501 285.604 189.01 206.097H122.821C112.361 271.202 106.512 305.122 105.277 307.855C104.041 310.588 80.5582 320.155 34.8278 336.554Z" fill="#721493"/>
<path fill-rule="evenodd" clip-rule="evenodd" d="M17.1348 344.11C17.4118 342.996 16.7357 341.847 15.6055 341.646C13.3733 341.249 9.91318 340.748 8.09089 341.069C5.26166 341.568 0 343.469 0 343.469C0.578723 346.752 10.4022 402.477 10.4022 402.477C10.4022 402.477 18.4099 403.436 18.1425 398.374C17.875 393.311 17.7857 389.947 17.7857 389.947L25.1951 360.283C25.3289 359.747 24.994 359.207 24.4544 359.088L19.7862 358.061C19.7862 358.061 16.8375 353.85 16.3319 350.982C16.0153 349.187 16.6306 346.138 17.1348 344.11Z" fill="#E4E4E4"/>
<path fill-rule="evenodd" clip-rule="evenodd" d="M259.718 218.587L229.631 189.23L219.638 206.525L250.924 224.975C258.769 237.336 263.376 242.676 264.746 240.997C265.901 239.581 265.372 238.03 264.884 236.6C264.504 235.487 264.15 234.448 264.636 233.605C265.748 231.681 272.03 232.783 277.946 234.083C283.862 235.384 282.493 232.478 281.236 230.961C275.645 226.447 268.471 222.323 259.718 218.587ZM82.3759 261.242C85.4883 254.926 96.0875 193.37 96.0875 193.37L118.282 193.457C118.282 193.457 97.7259 259.834 96.0875 263.895C93.9591 269.17 97.5749 276.836 100.025 282.034C100.405 282.838 100.757 283.583 101.054 284.251C97.6533 285.774 96.019 283.934 94.2964 281.993C92.3506 279.802 90.2918 277.483 85.4453 279.739C83.5729 280.61 81.801 281.64 80.0699 282.647C74.0904 286.123 68.5973 289.317 61.1246 284.705C59.9399 283.974 58.6417 281.221 61.7784 279.07C69.593 273.71 80.8543 264.329 82.3759 261.242Z" fill="#B28B67"/>
<path fill-rule="evenodd" clip-rule="evenodd" d="M159.161 100.214L168.346 98.6386C184.158 138.148 211.764 174.047 251.164 206.336L221.391 242.516C181.996 196.54 157.712 149.107 159.161 100.214Z" fill="#191847"/>
<path fill-rule="evenodd" clip-rule="evenodd" d="M119.127 215.658H200.907C200.907 215.658 172.487 146.539 172.487 98.2257L147.818 94.5496C128.43 125.739 122.955 164.139 119.127 215.658Z" fill="#DDE3E9"/>
<path fill-rule="evenodd" clip-rule="evenodd" d="M81.9533 250.716C90.897 149.787 147.276 94.5496 147.276 94.5496L147.296 94.567C147.299 94.5613 147.302 94.5554 147.306 94.5496H148.916C151.806 94.6491 157.72 94.9083 157.72 94.9083L163.681 111.947C164.627 143.11 174.728 237.549 174.728 237.549H121.197C121.288 241.879 121.49 246.27 121.814 250.716H81.9533Z" fill="#2F3676"/>
<path fill-rule="evenodd" clip-rule="evenodd" d="M121.207 237.967C120.779 219.111 122.452 201.406 125.242 185.383C126.701 204.396 129.751 227.274 136.12 237.967H121.207Z" fill="black" fill-opacity="0.1"/>
<path fill-rule="evenodd" clip-rule="evenodd" d="M133.052 205.034L159.486 192.742V205.034H133.052Z" fill="white" fill-opacity="0.2"/>
</svg>
