<svg width="952" height="840" viewBox="0 0 952 840" fill="none" xmlns="http://www.w3.org/2000/svg">
<path fill-rule="evenodd" clip-rule="evenodd" d="M746.361 263.016C786.668 263.016 819.344 230.34 819.344 190.033C819.344 149.725 786.668 117.049 746.361 117.049C706.053 117.049 673.377 149.725 673.377 190.033C673.377 230.34 706.053 263.016 746.361 263.016Z" fill="#F2F2F2"/>
<path fill-rule="evenodd" clip-rule="evenodd" d="M746.361 136.328C748.642 136.328 750.492 134.478 750.492 132.197C750.492 129.915 748.642 128.066 746.361 128.066C744.079 128.066 742.23 129.915 742.23 132.197C742.23 134.478 744.079 136.328 746.361 136.328Z" fill="black" fill-opacity="0.1"/>
<path fill-rule="evenodd" clip-rule="evenodd" d="M688.525 194.164C690.806 194.164 692.656 192.315 692.656 190.033C692.656 187.751 690.806 185.902 688.525 185.902C686.243 185.902 684.393 187.751 684.393 190.033C684.393 192.315 686.243 194.164 688.525 194.164Z" fill="black" fill-opacity="0.1"/>
<path fill-rule="evenodd" clip-rule="evenodd" d="M804.197 194.164C806.478 194.164 808.328 192.315 808.328 190.033C808.328 187.751 806.478 185.902 804.197 185.902C801.915 185.902 800.066 187.751 800.066 190.033C800.066 192.315 801.915 194.164 804.197 194.164Z" fill="black" fill-opacity="0.1"/>
<path fill-rule="evenodd" clip-rule="evenodd" d="M746.361 252C748.642 252 750.492 250.151 750.492 247.869C750.492 245.587 748.642 243.738 746.361 243.738C744.079 243.738 742.23 245.587 742.23 247.869C742.23 250.151 744.079 252 746.361 252Z" fill="black" fill-opacity="0.1"/>
<path fill-rule="evenodd" clip-rule="evenodd" d="M746.361 140.459L749.115 188.656H743.607L746.361 140.459Z" fill="#AFB9C5"/>
<path fill-rule="evenodd" clip-rule="evenodd" d="M770.733 214.404L745.416 192.982L749.31 189.088L770.733 214.404Z" fill="#AFB9C5"/>
<path fill-rule="evenodd" clip-rule="evenodd" d="M746.361 195.541C749.403 195.541 751.869 193.075 751.869 190.033C751.869 186.991 749.403 184.525 746.361 184.525C743.319 184.525 740.852 186.991 740.852 190.033C740.852 193.075 743.319 195.541 746.361 195.541Z" fill="#C5CFD6"/>
<g opacity="0.345889">
<path opacity="0.345889" fill-rule="evenodd" clip-rule="evenodd" d="M668.962 573.383C659.468 467.282 150.049 262.499 55.4776 362.994C-39.0941 463.49 51.8248 652.095 250.012 700.391C448.199 748.688 678.456 679.483 668.962 573.383Z" fill="#F2F2F2"/>
<path opacity="0.345889" fill-rule="evenodd" clip-rule="evenodd" d="M354.1 642.322C362.605 552.186 818.92 378.213 903.633 463.589C988.347 548.963 966.905 728.54 789.377 769.569C611.849 810.6 345.595 732.458 354.1 642.322Z" fill="#DDE3E9"/>
</g>
<path fill-rule="evenodd" clip-rule="evenodd" d="M80.5574 288.73C112.88 288.73 139.082 274.859 139.082 257.746C139.082 240.635 112.88 226.763 80.5574 226.763C48.2351 226.763 22.0328 240.635 22.0328 257.746C22.0328 274.859 48.2351 288.73 80.5574 288.73Z" fill="#F2F2F2"/>
<path fill-rule="evenodd" clip-rule="evenodd" d="M148.721 279.091C148.721 241.065 118.203 210.238 80.5574 210.238C42.9115 210.238 12.3935 241.065 12.3935 279.091" fill="#DDE3E9"/>
<path d="M84 0H77.1147V220.328H84V0Z" fill="#DDE3E9"/>
<g opacity="0.7">
<g opacity="0.7">
<path opacity="0.7" fill-rule="evenodd" clip-rule="evenodd" d="M187.279 218.951C211.439 218.951 231.025 207.755 231.025 193.946C231.025 180.137 211.439 168.942 187.279 168.942C163.118 168.942 143.533 180.137 143.533 193.946C143.533 207.755 163.118 218.951 187.279 218.951Z" fill="#F2F2F2"/>
<path opacity="0.7" fill-rule="evenodd" clip-rule="evenodd" d="M238.23 211.172C238.23 180.484 215.419 155.607 187.279 155.607C159.139 155.607 136.328 180.484 136.328 211.172" fill="#DDE3E9"/>
</g>
<path opacity="0.7" d="M191.41 0H184.525V187.279H191.41V0Z" fill="#DDE3E9"/>
</g>
<path d="M782.164 322.554L807.733 296.974C812.035 292.671 819.012 292.671 823.316 296.974L891.386 365.074C895.516 369.206 897.836 374.808 897.836 380.649V831.738" stroke="#CBCBCB" stroke-width="8"/>
<path d="M933.639 830.361H860.656C858.374 830.361 856.525 832.21 856.525 834.492V835.869C856.525 838.15 858.374 840 860.656 840H933.639C935.921 840 937.77 838.15 937.77 835.869V834.492C937.77 832.21 935.921 830.361 933.639 830.361Z" fill="#AFB9C5"/>
<path d="M733.277 307.543C751.023 289.796 779.795 289.796 797.543 307.543C815.289 325.289 815.289 354.061 797.543 371.809L770.279 399.073L706.013 334.807L733.277 307.543Z" fill="#C5CFD6"/>
<path fill-rule="evenodd" clip-rule="evenodd" d="M732.904 372.529C750.65 390.275 767.87 401.828 771.366 398.332C774.861 394.837 763.309 377.617 745.562 359.871C727.816 342.124 710.596 330.572 707.1 334.067C703.605 337.563 715.158 354.783 732.904 372.529Z" fill="#F2F2F2"/>
<path fill-rule="evenodd" clip-rule="evenodd" d="M65.0766 512.501C69.0212 512.019 73.2314 512.189 76.8999 513.745C84.7003 517.057 86.9176 526.272 86.8106 533.764C86.6954 541.825 84.9834 550.631 91.1127 557.127C93.9302 560.112 97.435 562.398 100.202 565.44C103.158 568.69 105.477 572.408 107.195 576.401C110.348 583.735 111.896 592.361 109.012 600.055C106.473 606.83 100.086 612.944 101.466 620.647C102.906 628.682 111.007 634.825 116.072 640.811C121.804 647.584 127.082 656.241 127.95 665.123C128.78 673.636 125.075 682.245 119.389 688.68C108.026 701.539 90.9475 707.842 73.7267 707.803C66.4151 707.787 58.1371 707.456 51.8275 703.528C49.8773 702.313 48.8485 700.95 47.6893 699.056C46.6499 697.357 45.2769 696.253 43.6876 695.05C40.196 692.411 37.6743 688.854 36.0651 684.871C29.8162 669.403 34.8108 650.267 43.5578 636.531C45.6305 633.277 47.3273 630.145 46.3204 626.267C45.2697 622.217 42.6872 618.565 40.4031 615.085C38.1458 611.644 35.5691 608.362 33.805 604.644C31.9572 600.747 31.437 596.667 31.7633 592.404C32.377 584.394 35.8346 577.002 40.73 570.561C45.445 564.356 50.9813 558.418 50.9937 550.29C51.0073 541.672 45.2467 534.007 47.7009 525.246C48.717 521.619 50.7581 517.897 54.0473 515.723C57.2017 513.637 61.3667 512.954 65.0766 512.501Z" fill="#DDE3E9"/>
<path fill-rule="evenodd" clip-rule="evenodd" d="M62.4991 526.275C62.573 525.118 63.9457 524.424 65.0264 524.726C66.4489 525.124 66.4215 526.453 66.3839 527.637C66.2687 531.277 66.7956 534.814 67.6706 538.346C69.489 545.689 72.8497 552.453 75.5122 559.506C78.1724 566.552 79.4211 573.829 77.8606 581.286C76.3894 588.317 74.0781 595.165 72.5726 602.204C71.2455 608.409 69.8334 614.953 71.8543 621.141C73.799 627.099 78.0983 631.95 81.1943 637.333C87.6031 648.477 90.4464 660.84 90.8266 673.563C91.0029 679.471 90.8443 685.433 89.4737 691.228C88.6848 694.564 87.6247 699.073 84.7655 701.377C83.4472 702.44 81.1922 702.806 80.0826 701.233C79.0409 699.759 79.9548 697.474 80.2854 695.901C81.7179 689.093 82.0059 682.136 81.6631 675.225C81.3312 668.53 80.5401 661.846 78.4329 655.451C76.4771 649.517 73.5058 644.186 70.0089 638.995C66.4456 633.706 62.7412 628.404 61.2688 622.136C59.7729 615.77 60.9882 609.292 62.6132 603.047C64.3318 596.443 66.5829 590.027 68.9099 583.6C71.1778 577.339 71.9817 571.413 70.7297 564.86C68.2565 551.913 61.6365 539.759 62.4991 526.275Z" fill="#C5CFD6"/>
<path fill-rule="evenodd" clip-rule="evenodd" d="M169.228 528.211C174.11 529.694 178.959 532.085 182.438 535.835C189.837 543.809 187.566 555.861 183.482 564.663C179.085 574.137 172.423 583.661 176.18 594.531C177.905 599.529 180.808 604.055 182.445 609.091C184.195 614.472 184.95 620.077 184.854 625.693C184.676 636.007 181.933 647.013 174.483 654.612C167.924 661.303 157.201 665.211 154.749 675.038C152.189 685.29 158.445 696.77 161.222 706.483C164.365 717.476 165.98 730.46 162.302 741.416C158.778 751.916 149.881 760.17 139.809 764.821C119.686 774.116 96.3227 772.686 76.145 763.681C67.5784 759.857 58.0434 755.161 52.7196 747.232C51.0743 744.781 50.5878 742.634 50.2292 739.792C49.9078 737.242 48.8813 735.222 47.6525 732.973C44.9523 728.035 43.8752 722.516 44.0928 716.969C44.9393 695.425 60.9118 675.393 78.4314 663.699C82.5827 660.929 86.2281 658.108 87.0975 652.997C88.0052 647.661 86.9066 641.998 86.0672 636.694C85.2379 631.451 83.9501 626.231 83.8468 620.914C83.739 615.345 85.2853 610.249 87.9221 605.377C92.8754 596.224 100.838 589.281 109.984 584.209C118.794 579.325 128.426 575.182 132.738 565.575C137.308 555.391 134.602 543.33 142.111 534.245C145.221 530.485 149.582 527.144 154.59 526.283C159.392 525.459 164.637 526.818 169.228 528.211Z" fill="#DDE3E9"/>
<path fill-rule="evenodd" clip-rule="evenodd" d="M159.257 545.051C159.95 543.72 161.919 543.616 163.025 544.54C164.479 545.758 163.75 547.316 163.087 548.699C161.046 552.95 159.809 557.414 158.983 562.055C157.264 571.704 157.651 581.476 157.07 591.224C156.491 600.964 154.14 610.235 148.41 618.247C143.006 625.803 136.718 632.702 131.27 640.249C126.47 646.901 121.391 653.91 120.514 662.297C119.667 670.371 122.154 678.37 122.954 686.368C124.612 702.924 121.461 719.055 115.243 734.321C112.355 741.41 109.047 748.388 104.409 754.531C101.74 758.07 98.1385 762.854 93.5889 764.082C91.4909 764.649 88.6619 763.903 88.1882 761.459C87.7429 759.164 90.0077 756.939 91.218 755.25C96.4581 747.939 100.439 739.851 103.658 731.486C106.776 723.383 109.352 715.053 110.237 706.375C111.058 698.324 110.375 690.454 109.005 682.474C107.608 674.342 106.053 666.121 107.614 657.928C109.199 649.604 114.013 642.57 119.184 636.026C124.652 629.105 130.645 622.688 136.731 616.297C142.662 610.07 146.705 603.475 148.674 595.059C152.563 578.428 151.188 560.566 159.257 545.051Z" fill="#C5CFD6"/>
<path fill-rule="evenodd" clip-rule="evenodd" d="M18.323 589.377C26.4397 589.377 33.5756 593.679 38.4928 599.785C44.2487 606.932 45.4112 615.659 47.7485 624.178C48.9115 628.416 50.9118 632.625 54.4174 635.505C57.6057 638.125 61.6534 638.648 65.4697 639.929C73.0968 642.486 79.2556 648.647 81.6879 656.163C84.6552 665.332 81.5122 674.579 82.0534 683.873C82.5502 692.407 90.9645 697.73 97.7344 701.821C104.41 705.856 110.424 709.632 112.434 717.491C114.566 725.826 115.282 735.129 112.328 743.363C107.412 757.073 93.0231 763.11 79.1199 764.045C66.5021 764.894 50.6367 763.561 41.1609 754.403C35.4907 748.922 33.4373 741.256 33.6921 733.63C33.8503 728.887 34.7898 724.189 36.0043 719.606C36.8651 716.359 38.0282 713.124 38.3595 709.768C39.2402 700.838 30.9872 699.124 23.962 696.671C15.035 693.556 8.78542 687.671 4.43959 679.47C0.39244 671.836 -1.3056 663.267 1.12048 654.861C2.35955 650.569 4.60704 646.676 7.655 643.364C8.99679 641.906 10.8878 640.69 12.0989 639.159C13.2292 637.728 12.9831 635.874 12.5935 634.2C10.7923 626.462 5.18044 620.055 3.17339 612.33C1.36147 605.358 2.43254 596.681 8.80676 592.183C11.5607 590.24 14.9569 589.399 18.323 589.377Z" fill="#C5CFD6"/>
<path fill-rule="evenodd" clip-rule="evenodd" d="M29.383 609.538C37.9859 618.703 40.3242 631.136 41.0106 643.187C41.3949 649.944 40.9949 657.071 42.9802 663.626C44.6789 669.236 48.6612 673.524 52.7662 677.578C61.0291 685.736 70.2444 694.031 72.6612 705.84C74.0793 712.769 73.1221 719.927 75.0817 726.779C76.8634 733.009 80.0005 739.128 83.8161 744.389C86.8883 748.626 90.891 751.869 94.2494 755.817C95.274 757.023 96.7417 758.797 96.3188 760.499C95.824 762.491 93.2856 763.122 91.4845 762.81C87.2855 762.08 83.7509 758.07 81.0053 755.154C76.9905 750.893 73.5789 746.308 70.8061 741.165C67.7277 735.454 65.2491 729.394 64.19 722.987C63.091 716.34 63.638 709.412 61.1284 703.032C56.9054 692.298 46.6627 685.963 39.2572 677.596C30.0303 667.172 31.4063 654.198 32.3514 641.373C32.8706 634.325 33.3867 626.367 29.8256 619.932C28.4663 617.477 25.4356 615.187 24.8512 612.394C24.3158 609.837 27.2376 607.253 29.383 609.538Z" fill="#AFB9C5"/>
<path fill-rule="evenodd" clip-rule="evenodd" d="M38.5579 760.131C38.5579 812.539 47.1105 840 92.2624 840C137.414 840 145.967 812.539 145.967 760.131H38.5579Z" fill="#89C5CC"/>
<path d="M274.033 684.393H227.213C225.692 684.393 224.459 685.626 224.459 687.148V694.033C224.459 695.554 225.692 696.787 227.213 696.787H274.033C275.554 696.787 276.787 695.554 276.787 694.033V687.148C276.787 685.626 275.554 684.393 274.033 684.393Z" fill="#AFB9C5"/>
<path fill-rule="evenodd" clip-rule="evenodd" d="M248.168 583.869H250.623H252H254.455C255.169 605.102 258.482 625.297 264.393 644.459H273.344C285.132 644.459 294.689 654.016 294.689 665.803C294.689 677.591 285.132 687.148 273.344 687.148H227.902C216.114 687.148 206.557 677.591 206.557 665.803C206.557 654.016 216.114 644.459 227.902 644.459H238.23C247.098 615.717 248.168 583.869 248.168 583.869Z" fill="#DDE3E9"/>
<path fill-rule="evenodd" clip-rule="evenodd" d="M201.906 488.41C201.906 488.41 225.576 486.098 249.246 486.098C272.916 486.098 296.586 488.41 296.586 488.41L302.951 597.822C302.951 597.822 276.098 600.393 249.246 600.393C222.393 600.393 195.541 597.822 195.541 597.822L201.906 488.41Z" fill="#C5CFD6"/>
<path fill-rule="evenodd" clip-rule="evenodd" d="M163.869 840V727.082V696.787H192.787H307.082H336V727.082V840H307.082V727.082H192.787V840H163.869Z" fill="#F2F2F2"/>
<path fill-rule="evenodd" clip-rule="evenodd" d="M740 451.959C752.164 480.861 772.84 500.944 783.792 530.997C790.286 548.819 792.993 568.198 793.157 588.044C793.246 598.824 793.058 609.611 793.008 620.391C792.959 630.903 792.674 641.348 791.781 651.795C790.883 662.295 789.88 672.671 789.437 683.235C789.092 691.467 788.935 701.043 786.145 708.552C783.925 714.525 778.285 715.399 776.789 708.156C775.958 704.131 776.062 699.635 776.154 695.497C776.272 690.188 776.58 684.888 776.738 679.579C777.37 658.279 776.55 636.976 776.979 615.668C777.398 594.848 780.074 574.052 777.113 553.371C774.667 536.295 768.457 521.629 761.318 507.571C754.449 494.045 746.973 480.848 742.333 465.462C741 461.044 739.97 456.466 739.475 451.713C739.692 451.613 739.866 451.694 740 451.959Z" fill="#C1DEE2"/>
<path fill-rule="evenodd" clip-rule="evenodd" d="M736.686 508.981C739.094 510.72 740.439 513.265 742.067 515.775C744.091 518.896 746.472 521.713 748.496 524.836C752.716 531.348 756.424 538.26 760.272 545.035C767.575 557.894 773.121 571.601 775.867 586.478C778.714 601.897 779.481 617.81 780.675 633.459C781.942 650.044 783.217 666.751 783.385 683.401C783.461 690.86 783.865 698.778 782.968 706.185C782.41 710.796 780.33 714.726 775.638 714.689C765.674 714.609 760.995 703.572 759.041 694.52C756.164 681.19 755.59 667.033 756.045 653.402C756.595 636.965 759.448 620.777 760.682 604.403C761.99 587.07 761.252 570.043 755.292 553.724C752.282 545.477 748.788 537.427 745.65 529.234C744.314 525.746 743.22 522.163 741.416 518.915C739.408 515.303 736.917 512.023 735.344 508.131C735.79 508.415 736.238 508.697 736.686 508.981Z" fill="#89C5CC"/>
<path fill-rule="evenodd" clip-rule="evenodd" d="M851.476 474.418C851.782 474.18 852.088 473.943 852.393 473.705C851.513 477.413 849.924 480.425 848.708 483.814C847.616 486.861 847.063 490.309 846.327 493.64C844.599 501.463 842.603 509.11 840.972 516.999C837.742 532.611 838.353 549.429 840.471 566.749C842.472 583.111 845.635 599.447 847.143 615.805C848.393 629.371 848.93 643.36 847.738 656.303C846.928 665.093 844.273 675.589 837.037 674.702C833.63 674.285 831.853 670.184 831.137 665.555C829.987 658.122 829.746 650.306 829.299 642.914C828.298 626.414 828.099 609.965 827.901 593.635C827.714 578.228 827.2 562.516 828.229 547.497C829.222 533.005 832.327 519.946 836.768 507.897C839.106 501.549 841.336 495.052 843.963 489.001C845.223 486.1 846.763 483.536 848.024 480.636C849.038 478.303 849.843 475.91 851.476 474.418Z" fill="#C1DEE2"/>
<path fill-rule="evenodd" clip-rule="evenodd" d="M739.763 556.744C741.081 554.531 743.981 561.826 744.423 562.745C744.236 562.288 744.049 561.832 743.86 561.378C746.475 565.726 748.868 570.254 750.355 575.24C751.828 580.177 753.092 585.214 754.473 590.185C757.066 599.514 760.409 608.577 762.757 617.989C765.046 627.161 765.623 636.177 765.068 645.664C764.492 655.524 764.14 665.536 764.812 675.39C765.133 680.097 766.663 684.482 767.71 689.012C768.76 693.548 769.586 698.145 770.827 702.624C771.112 702.04 771.148 703.992 771.148 704.139C771.139 705.259 770.984 706.196 770.623 707.258C769.699 709.987 767.968 712.305 765.334 713.058C760.575 714.417 756.154 710.088 754.62 705.516C752.418 698.956 751.204 691.707 750.154 684.812C749.193 678.49 748.965 672.129 749.251 665.721C749.814 653.081 752.102 640.606 752.72 627.97C753.393 614.214 750.668 601.287 748.386 587.897C747.287 581.444 746.237 575.053 744.097 568.906C743.231 566.416 742.101 564.22 740.919 561.92C740.244 560.613 738.882 558.281 739.763 556.744Z" fill="#C1DEE2"/>
<path fill-rule="evenodd" clip-rule="evenodd" d="M778.38 535.255C777.834 551.015 776.893 566.656 774.791 582.249C772.647 598.163 770.184 614.022 768.121 629.949C766.112 645.453 764.008 661.215 764.287 676.937C764.494 688.515 762.574 708.105 775.434 713.82C788.46 719.607 791.254 694.891 792.109 686.733C793.748 671.082 793.217 655.265 792.422 639.528C791.605 623.375 790.242 607.306 788.553 591.214C786.677 573.339 785.204 555.383 784.022 537.457C783.438 528.59 783.293 519.738 783.454 510.869C783.607 502.5 783.289 494.044 780.313 486.098C780.158 486.211 780.003 486.324 779.848 486.437" fill="#69A1AC"/>
<path fill-rule="evenodd" clip-rule="evenodd" d="M845.622 585.184C843.28 588.596 840.918 591.976 838.707 595.59C834.748 602.058 831.169 609.251 830.092 618.497C827.839 637.849 829.646 658.751 830.082 678.697C830.172 682.771 829.657 686.725 831.263 690.604C832.72 694.121 835.443 696.801 838.039 696.787C843.595 696.755 842.747 683.147 842.757 677.158C842.773 666.661 841.596 656.057 841.698 645.569C841.798 635.178 842.43 624.759 843.937 614.891C845.463 604.903 847.696 595.311 850.643 586.361C851.052 585.119 853.988 575.52 851.215 577.175" fill="#89C5CC"/>
<path fill-rule="evenodd" clip-rule="evenodd" d="M821.082 481.967C817.429 481.967 817.451 500.18 817.342 502.52C816.944 510.961 817.038 519.406 816.787 527.849C816.238 546.277 815.563 564.866 812.794 583.078C811.304 592.884 809.577 602.646 807.718 612.377C805.855 622.136 803.353 631.882 802.127 641.766C800.95 651.266 801.615 660.952 801.776 670.499C801.937 680.104 802.228 689.728 803.486 699.249C803.796 701.598 804.161 703.941 804.551 706.276C804.874 708.223 804.686 710.637 805.235 712.487C806.115 715.449 809.888 716.418 812.429 715.955C819.303 714.701 823.694 706.068 826.044 699.761C829.043 691.707 830.635 682.971 832.205 674.484C833.984 664.868 835.026 655.106 835.515 645.317C836.511 625.421 835.234 605.505 833.809 585.673C833.016 574.644 832.1 563.663 830.699 552.702C829.303 541.788 827.513 530.921 826.348 519.975C825.501 512.021 824.667 504.055 824.118 496.07C823.986 494.166 823.876 481.967 821.082 481.967Z" fill="#69A1AC"/>
<path fill-rule="evenodd" clip-rule="evenodd" d="M816.509 614.355C815.913 595.234 808.227 511.242 806.478 488.119C806.041 482.331 801.831 458.234 801.284 451.672C799.804 453.527 799.929 482.393 799.946 489.026C799.964 495.588 799.15 502.039 798.731 508.565C798.304 515.224 788.46 601.221 787.183 607.619C784.641 620.348 782.941 633.41 781.628 646.425C780.35 659.109 778.363 672.493 780.074 685.244C780.466 688.18 781.088 691.069 782.102 693.766C783.195 696.679 783.946 699.374 784.824 702.423C786.237 707.334 788.794 711.644 792.723 713.672C800.778 717.83 805.103 708.419 807.296 700.225C810.797 687.141 813.046 673.843 814.099 660.101C815.264 644.897 816.985 629.663 816.509 614.355Z" fill="#89C5CC"/>
<path d="M853.771 670.623H733.967C732.446 670.623 731.213 671.856 731.213 673.377V793.18C731.213 794.701 732.446 795.934 733.967 795.934H853.771C855.292 795.934 856.525 794.701 856.525 793.18V673.377C856.525 671.856 855.292 670.623 853.771 670.623Z" fill="white"/>
<path d="M728.459 684.393H720.197C718.676 684.393 717.443 685.626 717.443 687.148V837.246C717.443 838.767 718.676 840 720.197 840H728.459C729.98 840 731.213 838.767 731.213 837.246V687.148C731.213 685.626 729.98 684.393 728.459 684.393Z" fill="#C5CFD6"/>
<path d="M797.311 684.393H789.049C787.528 684.393 786.295 685.626 786.295 687.148V837.246C786.295 838.767 787.528 840 789.049 840H797.311C798.833 840 800.066 838.767 800.066 837.246V687.148C800.066 685.626 798.833 684.393 797.311 684.393Z" fill="#C5CFD6"/>
<path d="M867.541 684.393H859.279C857.758 684.393 856.525 685.626 856.525 687.148V837.246C856.525 838.767 857.758 840 859.279 840H867.541C869.062 840 870.295 838.767 870.295 837.246V687.148C870.295 685.626 869.062 684.393 867.541 684.393Z" fill="#C5CFD6"/>
</svg>
