<svg width="89" height="89" viewBox="0 0 89 89" fill="none" xmlns="http://www.w3.org/2000/svg">
<path d="M12.0315 22.5359C14.3581 20.9097 17.8653 21.2216 19.9543 22.9467L17.5584 19.4643C15.6303 16.7144 16.3209 13.7393 19.0732 11.8087C21.8255 9.88558 29.6246 15.0561 29.6246 15.0561C27.6792 12.279 28.043 8.75941 30.8201 6.81149C33.5971 4.87101 37.4286 5.54176 39.374 8.32379L65.1647 44.7574L61.8777 76.6244L34.4461 66.62L10.5192 31.1443C8.55646 28.3499 9.23464 24.4962 12.0315 22.5359Z" fill="#D2A077"/>
<path d="M6.67042 42.8046C6.67042 42.8046 3.86859 38.7207 7.955 35.9213C12.0365 33.122 14.8358 37.2034 14.8358 37.2034L27.8326 56.1578C28.2806 55.4104 28.7707 54.6728 29.3177 53.9451L11.2791 27.6421C11.2791 27.6421 8.47972 23.5606 12.5637 20.7613C16.6451 17.9619 19.4445 22.0434 19.4445 22.0434L36.4113 46.7871C37.0425 46.2722 37.6885 45.7549 38.3543 45.2476L18.6846 16.5586C18.6846 16.5586 15.8852 12.4771 19.9692 9.67775C24.0506 6.8784 26.85 10.9599 26.85 10.9599L46.5197 39.6439C47.2424 39.2009 47.9577 38.8172 48.6755 38.4113L30.2904 11.6009C30.2904 11.6009 27.491 7.51945 31.5725 4.72011C35.654 1.92076 38.4533 6.00221 38.4533 6.00221L57.8928 34.3521L60.8481 38.6638C48.6013 47.0643 47.4355 62.8679 54.4326 73.0727C55.8311 75.1147 57.873 73.7163 57.873 73.7163C49.475 61.4669 52.0392 47.7029 64.2885 39.3048L60.6773 21.2316C60.6773 21.2316 59.3284 16.4695 64.088 15.118C68.8501 13.7691 70.2015 18.5312 70.2015 18.5312L74.3721 30.9167C76.0255 35.8273 77.7853 40.7206 80.1144 45.349C86.6907 58.4176 82.7627 74.6593 70.3624 83.1662C56.8359 92.4405 38.3444 88.9926 29.0677 75.4686L6.67042 42.8046Z" fill="#F3D2A2"/>
<path d="M29.7013 79.2035C19.8009 79.2035 9.79646 69.1991 9.79646 59.2987C9.79646 57.93 8.79405 56.8236 7.42531 56.8236C6.05657 56.8236 4.84624 57.93 4.84624 59.2987C4.84624 74.1493 14.8506 84.1537 29.7013 84.1537C31.07 84.1537 32.1764 82.9434 32.1764 81.5747C32.1764 80.2059 31.07 79.2035 29.7013 79.2035Z" fill="#5DADEC"/>
<path d="M17.3258 84.0498C9.90044 84.0498 4.95022 79.0996 4.95022 71.6742C4.95022 70.3055 3.84385 69.1991 2.47511 69.1991C1.10637 69.1991 0 70.3055 0 71.6742C0 81.5747 7.42533 89 17.3258 89C18.6945 89 19.8009 87.8936 19.8009 86.5249C19.8009 85.1562 18.6945 84.0498 17.3258 84.0498ZM59.4026 4.84628C58.0364 4.84628 56.9275 5.95513 56.9275 7.32139C56.9275 8.68765 58.0364 9.7965 59.4026 9.7965C69.3031 9.7965 79.2035 18.6797 79.2035 29.5974C79.2035 30.9636 80.3124 32.0725 81.6786 32.0725C83.0449 32.0725 84.1537 30.9636 84.1537 29.5974C84.1537 15.9496 74.2533 4.84628 59.4026 4.84628Z" fill="#5DADEC"/>
<path d="M71.7782 0C70.4119 0 69.3031 1.00489 69.3031 2.37116C69.3031 3.73742 70.4119 4.95022 71.7782 4.95022C79.2035 4.95022 84.0498 10.4573 84.0498 17.2218C84.0498 18.5881 85.2601 19.6969 86.6288 19.6969C87.9976 19.6969 89 18.5881 89 17.2218C89 7.72482 81.6786 0 71.7782 0Z" fill="#5DADEC"/>
</svg>
